<?xml version="1.0" encoding="utf-8"?>
<!-- Generator: Adobe Illustrator 19.2.1, SVG Export Plug-In . SVG Version: 6.00 Build 0)  -->
<svg version="1.1" id="Layer_1" xmlns="http://www.w3.org/2000/svg" xmlns:xlink="http://www.w3.org/1999/xlink" x="0px" y="0px"
	 width="300px" height="100px" viewBox="0 0 300 100" style="enable-background:new 0 0 300 100;" xml:space="preserve">
<style type="text/css">
	.st0{fill:#74AADB;}
	.st1{fill:#4E4E4E;}
	.st2{fill:#FFFFFF;}
</style>
<g>
	<circle class="st0" cx="51" cy="49.9" r="50"/>
	<g>
		<path class="st1" d="M111.7,64.8c2.6,1.7,6.3,2.9,10.3,2.9c5.9,0,9.4-3.1,9.4-7.6c0-4.1-2.4-6.6-8.4-8.8
			c-7.3-2.7-11.8-6.5-11.8-12.8c0-7,5.8-12.2,14.5-12.2c4.5,0,7.9,1.1,9.8,2.2l-1.6,4.7c-1.4-0.9-4.4-2.1-8.4-2.1
			c-6.1,0-8.4,3.7-8.4,6.7c0,4.2,2.7,6.3,8.9,8.6c7.6,2.9,11.4,6.6,11.4,13.2c0,6.9-5.1,13-15.6,13c-4.3,0-9-1.3-11.4-2.9
			L111.7,64.8z"/>
		<path class="st1" d="M151.8,31.9v7.7h8.4v4.5h-8.4v17.4c0,4,1.1,6.3,4.4,6.3c1.6,0,2.5-0.1,3.4-0.4l0.3,4.5
			c-1.1,0.4-2.9,0.8-5.2,0.8c-2.7,0-4.9-0.9-6.3-2.5c-1.6-1.8-2.3-4.7-2.3-8.4V44.1h-5v-4.5h5v-6L151.8,31.9z"/>
		<path class="st1" d="M193.7,63c0,3.4,0.1,6.3,0.3,8.8h-5.2l-0.3-5.3h-0.1c-1.5,2.6-4.9,6-10.6,6c-5.1,0-11.1-2.9-11.1-14.1V39.6
			h5.9v17.8c0,6.1,1.9,10.3,7.2,10.3c3.9,0,6.6-2.7,7.7-5.4c0.3-0.8,0.5-1.9,0.5-3V39.6h5.9V63H193.7z"/>
		<path class="st1" d="M231.1,24.6v38.9c0,2.9,0.1,6.1,0.3,8.3h-5.2l-0.3-5.6h-0.2c-1.7,3.6-5.6,6.3-10.8,6.3
			c-7.8,0-13.8-6.6-13.8-16.4c-0.1-10.7,6.6-17.2,14.4-17.2c5,0,8.2,2.3,9.7,4.9h0.1V24.6H231.1z M225.4,52.7c0-0.7-0.1-1.7-0.3-2.5
			c-0.9-3.7-4.1-6.7-8.4-6.7c-6.1,0-9.6,5.3-9.6,12.4c0,6.5,3.3,11.9,9.5,11.9c3.9,0,7.5-2.7,8.6-7c0.2-0.8,0.3-1.6,0.3-2.5v-5.6
			C225.5,52.7,225.4,52.7,225.4,52.7z"/>
		<path class="st1" d="M247.4,30.6c0,2-1.4,3.6-3.7,3.6c-2.1,0-3.5-1.6-3.5-3.6s1.5-3.7,3.7-3.7C246,26.9,247.4,28.5,247.4,30.6z
			 M240.9,71.8V39.6h5.9v32.2H240.9z"/>
		<path class="st1" d="M285.6,55.5c0,11.9-8.3,17.1-16,17.1c-8.6,0-15.4-6.4-15.4-16.6c0-10.7,7.1-17,16-17
			C279.4,39,285.6,45.7,285.6,55.5z M260.1,55.8c0,7,4,12.4,9.7,12.4c5.6,0,9.8-5.3,9.8-12.5c0-5.5-2.7-12.3-9.6-12.3
			C263.1,43.4,260.1,49.7,260.1,55.8z"/>
	</g>
	<g>
		<path class="st2" d="M68.1,65.9h5.4v4.2h-8.3L51.6,49.5h-7.3v16.3h7.2V70h-18v-4.2h6.1V29.7l-6.2-0.8v-4c2.3,0.5,4.4,0.9,6.9,0.9
			c3.8,0,7.8-0.9,11.6-0.9c7.5,0,14.4,3.4,14.4,11.7c0,6.4-3.8,10.5-9.8,12.2L68.1,65.9z M44.2,45.5l3.9,0.1
			c9.6,0.2,13.3-3.5,13.3-8.4c0-5.7-4.1-8-9.4-8c-2.5,0-5,0.2-7.8,0.5C44.2,29.7,44.2,45.5,44.2,45.5z"/>
	</g>
</g>
</svg>
