<?xml version="1.0" standalone="no"?>
<!DOCTYPE svg PUBLIC "-//W3C//DTD SVG 1.1//EN" "http://www.w3.org/Graphics/SVG/1.1/DTD/svg11.dtd" >
<svg xmlns="http://www.w3.org/2000/svg" xmlns:xlink="http://www.w3.org/1999/xlink" version="1.1">
<metadata>
Created by FontForge 20190801 at Sat Mar  7 17:40:32 2015
 By Jimmy Wärting
SIL Open Font License (OFL)
</metadata>
<defs>
<font id="Bagnard" horiz-adv-x="833" >
  <font-face 
    font-family="Bagnard"
    font-weight="400"
    font-stretch="normal"
    units-per-em="1000"
    panose-1="2 0 0 0 0 0 0 0 0 0"
    ascent="750"
    descent="-250"
    x-height="479"
    cap-height="718"
    bbox="-49 -271 1134 969"
    underline-thickness="50"
    underline-position="-100"
    stemh="50"
    stemv="120"
    unicode-range="U+0020-20AC"
  />
<missing-glyph horiz-adv-x="300" 
 />
    <glyph glyph-name=".notdef" horiz-adv-x="300" 
 />
    <glyph glyph-name="space" unicode=" " horiz-adv-x="300" 
 />
    <glyph glyph-name="exclam" unicode="!" horiz-adv-x="293" 
d="M65 658c0 45 36 82 81 82s82 -37 82 -82c0 -7 -1 -13 -2 -19l-65 -420h-29l-65 420c-2 6 -2 12 -2 19zM69 67c0 43 34 78 77 78s78 -35 78 -78s-35 -77 -78 -77s-77 34 -77 77z" />
    <glyph glyph-name="dollar" unicode="$" horiz-adv-x="640" 
d="M286 -64v61c-52 6 -93 24 -125 47l-79 -55l3 339c61 -155 121 -254 201 -274v249c-15 6 -30 12 -43 18c-44 21 -163 82 -163 207c0 128 91 190 206 202v53h54v-51c45 -3 95 -23 132 -47l79 56l-2 -341c-78 180 -116 262 -209 276v-240l54 -22c78 -39 166 -93 166 -221
c0 -107 -80 -194 -220 -199v-58h-54zM439 160c0 57 -47 92 -99 119v-228c57 7 99 41 99 109zM196 572c0 -57 31 -84 90 -112v217c-50 -10 -90 -55 -90 -105z" />
    <glyph glyph-name="ampersand" unicode="&#x26;" horiz-adv-x="804" 
d="M540 0l54 48l-85 72c-46 -63 -113 -131 -235 -131c-148 0 -229 76 -229 183c0 99 79 171 173 205l-14 13c-41 37 -92 91 -92 172c0 91 88 178 203 178c112 0 185 -63 185 -159c0 -67 -53 -130 -137 -173l176 -159l86 150l-71 80h116l-1 -3l2 3h113l-92 -65l-121 -194
c74 -67 139 -127 162 -149l87 -71h-280zM322 51c68 0 121 55 152 99c-80 69 -151 133 -227 201c-49 -45 -66 -95 -66 -159c0 -76 51 -141 141 -141zM284 481c11 -11 27 -26 46 -43c47 44 73 96 73 136c0 77 -38 120 -87 120c-51 0 -88 -40 -88 -94c0 -50 23 -88 56 -119z
" />
    <glyph glyph-name="parenleft" unicode="(" horiz-adv-x="387" 
d="M325 822l32 -36c-113 -126 -156 -313 -156 -467s43 -341 156 -467l-32 -36c-142 124 -245 317 -245 503c0 189 113 392 245 503z" />
    <glyph glyph-name="parenright" unicode=")" horiz-adv-x="387" 
d="M30 786l32 36c132 -111 245 -314 245 -503c0 -186 -103 -379 -245 -503l-32 36c113 126 156 313 156 467s-43 341 -156 467z" />
    <glyph glyph-name="comma" unicode="," horiz-adv-x="301" 
d="M146 -29c0 25 -19 35 -27 36c-10 6 -49 21 -49 75c0 43 34 80 85 80c44 0 89 -41 89 -110c0 -118 -102 -195 -127 -211c-13 -7 -24 -4 -26 -1c-2 4 -2 12 3 18c17 23 52 63 52 113z" />
    <glyph glyph-name="hyphen" unicode="-" horiz-adv-x="385" 
d="M60 220v68h265v-68h-265z" />
    <glyph glyph-name="period" unicode="." horiz-adv-x="301" 
d="M65 75c0 48 38 86 85 86c48 0 86 -38 86 -86c0 -47 -38 -85 -86 -85c-47 0 -85 38 -85 85z" />
    <glyph glyph-name="slash" unicode="/" horiz-adv-x="364" 
d="M-13 12l317 740l68 -24l-317 -740z" />
    <glyph glyph-name="zero" unicode="0" horiz-adv-x="645" 
d="M322 -9c-206 0 -287 180 -287 369s81 369 287 369c207 0 288 -180 288 -369s-81 -369 -288 -369zM322 669c-125 0 -147 -148 -147 -309s22 -309 147 -309c127 0 148 148 148 309s-22 309 -148 309z" />
    <glyph glyph-name="one" unicode="1" horiz-adv-x="454" 
d="M29 0l153 84v491l-162 -13l246 161l36 27l-1 -671l128 -79h-400z" />
    <glyph glyph-name="two" unicode="2" horiz-adv-x="521" 
d="M-22 0l92 100c148 158 239 248 246 385c0 105 -69 150 -128 150c-78 0 -146 -51 -162 -142c-14 152 76 240 212 240c121 0 212 -89 212 -204c0 -162 -157 -269 -314 -429h236l116 122l-31 -122h1l-10 -35l-6 -26h-1l-8 -30h1l-11 -45l-33 36h-412z" />
    <glyph glyph-name="three" unicode="3" horiz-adv-x="564" 
d="M22 168c0 38 32 69 69 69s69 -31 69 -69c0 -36 -28 -66 -63 -69c19 -30 60 -51 113 -51c88 0 174 55 174 158c0 94 -33 185 -186 185h-31v44h53h38c46 21 91 64 91 123c0 74 -55 112 -112 112c-78 0 -137 -51 -173 -120c-7 113 78 188 211 188c112 0 200 -58 200 -157
c0 -75 -61 -125 -123 -149c105 -19 172 -110 172 -200c0 -145 -122 -242 -283 -242c-92 0 -151 41 -185 89c-17 24 -30 48 -32 72c-2 6 -2 11 -2 17z" />
    <glyph glyph-name="four" unicode="4" horiz-adv-x="590" 
d="M17 222l15 19l16 20l320 406l92 120l-1 -526h100v-72h-100v-115l106 -74h-380l155 86v103h-323v33zM111 261h229v285z" />
    <glyph glyph-name="five" unicode="5" horiz-adv-x="536" 
d="M83 478l30 240h10v1h292l81 82l-13 -82l-17 -110h-317l-15 -118c29 4 61 5 83 5c149 -5 272 -75 277 -235c5 -167 -111 -271 -264 -271c-110 0 -171 68 -193 126c-7 11 -11 23 -11 36c-2 38 29 69 66 69c36 0 67 -31 69 -69c2 -34 -22 -62 -53 -68c26 -25 67 -36 101 -36
c107 0 176 72 172 174c-4 113 -101 158 -190 159c-28 0 -96 -6 -124 -27z" />
    <glyph glyph-name="six" unicode="6" horiz-adv-x="561" 
d="M311 447c138 0 220 -77 220 -204c0 -155 -114 -252 -249 -252c-195 0 -247 142 -247 289c0 125 90 255 142 311c65 70 191 154 282 143c-74 -35 -172 -133 -215 -202c-21 -33 -42 -74 -56 -129c35 28 82 44 123 44zM172 264c0 -100 5 -223 120 -223c66 0 102 59 102 166
c0 106 -40 182 -117 182c-45 0 -87 -22 -104 -81c-1 -14 -1 -29 -1 -44z" />
    <glyph glyph-name="seven" unicode="7" horiz-adv-x="456" 
d="M487 733l-64 -110h-2l1 -2l-232 -621h-154l326 623h-294l-68 -113s5 82 10 136l-1 87h478z" />
    <glyph glyph-name="eight" unicode="8" horiz-adv-x="557" 
d="M42 172c0 87 55 153 131 191c-63 40 -114 92 -114 189c0 91 94 188 215 188c130 0 213 -73 213 -169c0 -65 -49 -120 -127 -159c82 -49 160 -108 160 -220c0 -122 -117 -203 -239 -203c-148 0 -239 76 -239 183zM392 166c0 93 -90 127 -177 173c-49 -45 -67 -99 -67 -157
c0 -76 41 -141 131 -141c61 0 113 47 113 125zM175 600c0 -77 67 -120 143 -164c46 41 72 88 72 128c0 58 -35 130 -115 130c-57 0 -100 -40 -100 -94z" />
    <glyph glyph-name="nine" unicode="9" horiz-adv-x="561" 
d="M250 273c-138 0 -220 77 -220 204c0 155 114 252 249 252c195 0 247 -142 247 -289c0 -125 -90 -255 -142 -311c-50 -54 -148 -120 -225 -139c-40 -10 -60 12 -15 36c88 47 196 116 232 293c-35 -30 -84 -46 -126 -46zM389 456c0 100 -5 223 -120 223
c-66 0 -102 -59 -102 -166c0 -106 40 -182 117 -182c45 0 87 22 104 82c0 14 1 28 1 43z" />
    <glyph glyph-name="colon" unicode=":" horiz-adv-x="311" 
d="M70 76c0 47 38 86 85 86c48 0 86 -39 86 -86c0 -48 -38 -86 -86 -86c-47 0 -85 38 -85 86zM70 402c0 48 38 87 85 87c48 0 86 -39 86 -87c0 -47 -38 -85 -86 -85c-47 0 -85 38 -85 85z" />
    <glyph glyph-name="semicolon" unicode=";" horiz-adv-x="311" 
d="M70 403c0 48 38 86 85 86c48 0 86 -38 86 -86c0 -47 -38 -85 -86 -85c-47 0 -85 38 -85 85zM146 -29c0 25 -19 35 -27 36c-10 6 -49 21 -49 75c0 43 34 80 85 80c44 0 89 -41 89 -110c0 -118 -102 -195 -127 -211c-13 -7 -24 -4 -26 -1c-2 4 -2 12 3 18
c17 23 52 63 52 113z" />
    <glyph glyph-name="question" unicode="?" horiz-adv-x="510" 
d="M41 600c0 59 91 141 197 141h17c90 0 213 -50 213 -184c0 -88 -69 -183 -215 -198l-32 -140h-24l-23 214c129 2 166 75 166 138c-1 83 -64 126 -137 126c-31 0 -61 -7 -76 -27c33 0 69 -32 69 -75s-35 -77 -78 -77s-77 29 -77 82zM132 67c0 43 34 78 77 78s78 -35 78 -78
s-35 -77 -78 -77s-77 34 -77 77z" />
    <glyph glyph-name="at" unicode="@" horiz-adv-x="819" 
d="M359 137c-74 0 -148 60 -120 204c21 114 116 212 233 212c24 0 53 -8 72 -36l68 22l-55 -260h1c-1 -1 -1 -2 -1 -3l-5 -22h-1c0 -4 -1 -8 -1 -12c-3 -19 -8 -62 29 -62c44 0 111 56 111 224c0 157 -103 255 -214 256c-110 1 -337 -68 -337 -372c0 -121 89 -264 263 -264
c58 0 153 24 195 46l12 -28c-89 -49 -193 -59 -266 -59c-201 0 -308 144 -308 288c0 272 233 429 448 429c135 0 301 -75 301 -285c0 -233 -163 -280 -240 -280c-41 0 -73 22 -82 55c-26 -38 -67 -53 -103 -53zM414 198c17 0 31 2 45 13v2c0 15 5 62 10 82l35 159
c-7 37 -24 55 -40 55c-63 0 -108 -85 -123 -163c-16 -112 33 -148 73 -148z" />
    <glyph glyph-name="A" unicode="A" horiz-adv-x="748" 
d="M-16 0l84 81l271 646h53l262 -663l74 -64h-333l97 75l-50 134h-248l-58 -143l86 -66h-238zM323 527l-106 -261h204z" />
    <glyph glyph-name="B" unicode="B" horiz-adv-x="726" 
d="M25 0l104 80v557l-104 81h182s116 1 222 1c130 0 207 -74 207 -168c0 -76 -34 -139 -163 -179c114 -9 203 -66 203 -186c0 -96 -76 -186 -238 -186h-413zM321 342h-52v-291h94c85 2 164 44 164 140c0 97 -75 151 -206 151zM281 667h-12v-274c108 0 218 6 218 133
c0 55 -21 103 -60 122c-37 20 -84 19 -146 19z" />
    <glyph glyph-name="C" unicode="C" horiz-adv-x="749" 
d="M679 295v-325l-105 82c-55 -52 -118 -70 -184 -70c-207 0 -340 153 -340 355c0 252 146 397 365 397c50 0 114 -23 164 -69l100 78v-325c-88 136 -140 247 -269 247c-120 0 -203 -125 -203 -297s62 -320 205 -320c141 0 215 172 267 247z" />
    <glyph glyph-name="D" unicode="D" horiz-adv-x="806" 
d="M25 0l104 80v557l-104 81h341c199 0 390 -106 390 -361c0 -199 -130 -359 -398 -359c-171 0 -174 2 -174 2h-159zM337 662h-68v-607h88c164 0 239 115 239 292c0 178 -80 315 -259 315z" />
    <glyph glyph-name="E" unicode="E" horiz-adv-x="710" 
d="M656 449l-168 212h-219v-264h129l94 140v-341l-94 140h-129v-274h261l160 227l-40 -289h-625l104 80v557l-104 81h611z" />
    <glyph glyph-name="F" unicode="F" horiz-adv-x="636" 
d="M25 0l104 80v557l-104 81h611l20 -269l-168 212h-219v-274h129l94 140v-341l-94 140h-129v-242l109 -84h-353z" />
    <glyph glyph-name="G" unicode="G" horiz-adv-x="846" 
d="M724 -32l-99 100c-61 -65 -147 -86 -228 -86c-219 0 -347 153 -347 355c0 252 154 397 385 397c50 0 119 -23 173 -70l101 79v-325c-88 136 -150 247 -279 247c-132 0 -223 -125 -223 -297s58 -320 215 -320c97 0 149 46 152 134v89l-97 71h354l-107 -80v-294zM475 342v2
l2 -2h-2z" />
    <glyph glyph-name="H" unicode="H" horiz-adv-x="847" 
d="M469 0l104 80v255h-304v-251l109 -84h-353l104 80v557l-104 81h353l-109 -85v-241h304v245l-104 81h353l-109 -85v-549l109 -84h-353z" />
    <glyph glyph-name="I" unicode="I" horiz-adv-x="403" 
d="M378 718l-109 -85v-549l109 -84h-353l104 80v557l-104 81h353z" />
    <glyph glyph-name="J" unicode="J" horiz-adv-x="378" 
d="M369 718l-109 -85v-580c0 -222 -136 -277 -231 -277c46 56 89 83 91 261v600l-104 81h353z" />
    <glyph glyph-name="K" unicode="K" horiz-adv-x="743" 
d="M748 719l-161 -114l-157 -160l341 -491c-115 0 -263 137 -349 245l-105 130l-48 -48v-197l109 -84h-353l104 80v557l-104 81h353l-109 -85v-277l271 282l-52 81h260z" />
    <glyph glyph-name="L" unicode="L" horiz-adv-x="722" 
d="M377 718l-108 -84v-572h244l163 221l-24 -283h-627l104 80v557l-104 81h352z" />
    <glyph glyph-name="M" unicode="M" horiz-adv-x="1025" 
d="M647 0l104 80v508l-226 -471l-26 -56l-36 -73l-284 585v-492l104 -81h-268l102 79v556l-101 83h240l246 -510l249 510h247l-107 -86v-548l109 -84h-353z" />
    <glyph glyph-name="N" unicode="N" horiz-adv-x="815" 
d="M800 718l-102 -79v-654l-513 525v-433l99 -77h-268l102 79v544l-103 95h178l438 -446v369l-99 77h268z" />
    <glyph glyph-name="O" unicode="O" horiz-adv-x="811" 
d="M765 359c1 -233 -140 -378 -360 -382c-219 3 -360 147 -360 380c0 226 144 382 360 382c228 0 359 -166 360 -380zM405 680c-148 1 -203 -160 -203 -322c0 -163 54 -322 203 -322c148 0 203 160 203 322c0 161 -55 321 -203 322z" />
    <glyph glyph-name="P" unicode="P" horiz-adv-x="653" 
d="M25 0l104 80v557l-104 81h182s111 1 202 1c148 0 237 -94 237 -198c0 -120 -94 -228 -258 -228c-68 0 -103 2 -119 4v-213l109 -84h-353zM291 667h-22v-324c112 0 228 3 228 163c0 65 -21 119 -60 142c-37 20 -84 19 -146 19z" />
    <glyph glyph-name="Q" unicode="Q" horiz-adv-x="831" 
d="M780 359c0 -151 -60 -264 -162 -327l117 -260c-118 28 -168 106 -271 209c-16 -2 -32 -3 -49 -4c-221 3 -365 147 -365 380c0 226 147 382 365 382c230 0 364 -166 365 -380zM415 680c-150 1 -208 -160 -208 -322c0 -163 57 -322 208 -322c150 0 208 160 208 322
c0 161 -58 321 -208 322z" />
    <glyph glyph-name="R" unicode="R" horiz-adv-x="739" 
d="M25 0l104 80v557l-104 81h182s132 1 238 1c130 0 207 -84 207 -178c0 -80 -38 -156 -184 -195l286 -392c-173 1 -356 276 -466 385h-19v-255l109 -84h-353zM297 667h-28v-284c113 0 234 0 234 143c0 55 -21 103 -60 122c-37 20 -84 19 -146 19z" />
    <glyph glyph-name="S" unicode="S" horiz-adv-x="640" 
d="M330 733c47 0 103 -22 142 -48l79 56l-2 -341c-86 200 -123 279 -241 279c-60 0 -112 -49 -112 -107c0 -85 70 -103 198 -158c78 -39 166 -93 166 -221c0 -110 -85 -199 -233 -199c-71 0 -126 21 -166 50l-79 -55l3 339c69 -174 136 -278 232 -278c69 0 122 33 122 110
c0 93 -123 129 -196 161c-44 21 -163 82 -163 207c0 144 115 205 250 205z" />
    <glyph glyph-name="T" unicode="T" horiz-adv-x="702" 
d="M167 0l104 80v583h-112l-168 -212l20 269h662l20 -269l-168 212h-114v-579l109 -84h-353z" />
    <glyph glyph-name="U" unicode="U" horiz-adv-x="805" 
d="M798 718l-97 -75v-333c0 -166 -56 -336 -288 -336c-233 0 -299 131 -299 312v351l-104 81h353l-99 -77v-376c0 -118 33 -213 179 -213c114 0 185 72 185 268l-1 322l-97 76h268z" />
    <glyph glyph-name="V" unicode="V" horiz-adv-x="827" 
d="M827 718l-119 -92l-250 -583l-8 -22l-31 -73l-316 690l-103 80h353l-89 -69l194 -460l190 459l-89 70h268z" />
    <glyph glyph-name="W" unicode="W" horiz-adv-x="1119" 
d="M1134 721l-106 -91l-225 -609l-27 -73l-215 558l-134 -376l-38 -109l-28 -73l-276 693l-92 80h319l-79 -68l162 -437l131 380l-23 59l-76 66h329l-97 -79l153 -431l157 443l-77 67h242z" />
    <glyph glyph-name="X" unicode="X" horiz-adv-x="761" 
d="M0 1l117 90l13 17l184 237l-185 277l-123 96h353l-89 -70l135 -203l141 199l-81 74h268l-127 -86l-170 -234l201 -303l124 -95h-353l89 69l-151 227l-168 -226l90 -69h-268z" />
    <glyph glyph-name="Y" unicode="Y" horiz-adv-x="734" 
d="M205 0l104 80v191l-199 361l-110 86h353l-92 -72l164 -297l165 290l-101 79h268l-94 -73l-214 -359v-202l109 -84h-353z" />
    <glyph glyph-name="Z" unicode="Z" horiz-adv-x="716" 
d="M13 0l418 651h-234l-132 -227l20 294h556l-424 -645h311l149 251l-39 -316v-8h-625z" />
    <glyph glyph-name="grave" unicode="`" 
d="M331 727l3 -4c27 -36 95 -148 112 -173l-17 -18l-219 165l14 30h107z" />
    <glyph glyph-name="a" unicode="a" horiz-adv-x="531" 
d="M332 341h1c-4 68 -48 105 -98 105c-30 0 -77 -6 -91 -26c43 -17 54 -42 54 -76c0 -39 -33 -70 -69 -70c-44 0 -68 35 -68 81c0 59 88 139 191 139h16c87 0 179 -40 179 -174c0 -41 -1 -195 -1 -241l76 -79h-164l-25 77c-31 -54 -100 -91 -166 -91c-93 0 -122 69 -122 114
c0 70 59 111 121 126c72 17 167 28 166 115zM215 61c36 0 93 22 115 75l2 121c-24 -31 -61 -50 -94 -63c-54 -24 -74 -47 -74 -85c0 -30 25 -48 51 -48z" />
    <glyph glyph-name="b" unicode="b" horiz-adv-x="607" 
d="M80 -40v627l-72 35l192 128l-1 -330c36 47 96 67 149 67c107 0 218 -76 218 -242c0 -134 -113 -258 -277 -258c-40 0 -87 9 -126 36zM281 398c-20 0 -53 -2 -82 -24v-201c1 -93 41 -136 111 -136c81 0 132 71 132 162c0 135 -72 199 -161 199z" />
    <glyph glyph-name="c" unicode="c" horiz-adv-x="515" 
d="M279 -10c-144 0 -239 101 -239 234c0 160 109 265 261 265c94 0 169 -59 169 -140c0 -40 -26 -77 -72 -77c-37 0 -71 23 -71 73c0 40 23 97 -37 97c-75 0 -137 -66 -137 -162c0 -122 70 -189 167 -189c62 0 132 28 165 94c0 -113 -106 -195 -206 -195z" />
    <glyph glyph-name="d" unicode="d" horiz-adv-x="619" 
d="M259 -13c-107 0 -218 76 -218 242c0 134 113 258 277 258c28 0 59 -5 89 -17v117l-72 35l156 104v-1l36 25v-642l72 -50l-162 -81l-24 86c-34 -53 -98 -76 -154 -76zM326 76c20 0 53 2 81 23v226c-7 76 -46 112 -110 112c-81 0 -132 -71 -132 -162
c0 -135 72 -199 161 -199z" />
    <glyph glyph-name="e" unicode="e" horiz-adv-x="520" 
d="M275 -10c-155 0 -235 117 -235 240c0 140 95 259 241 259c83 0 198 -41 208 -180h1v-9v-11v-30h-337c4 -101 67 -168 166 -168c70 0 128 30 167 93c0 -113 -106 -194 -211 -194zM266 442c-54 0 -112 -48 -113 -133h209c0 79 -33 133 -96 133z" />
    <glyph glyph-name="f" unicode="f" horiz-adv-x="347" 
d="M340 415h-119v-345l78 -70h-270l72 70v345h-77v64h77c-22 29 -45 75 -45 126c0 96 64 149 144 149c46 0 113 -23 152 -103l-88 -105c-13 52 -51 103 -83 103c-36 0 -54 -20 -54 -54c0 -35 41 -96 99 -116h114v-64z" />
    <glyph glyph-name="g" unicode="g" horiz-adv-x="529" 
d="M53 321c0 102 97 168 225 168h7c-23 41 -30 96 -30 123s7 50 21 66c13 18 35 30 60 30c42 0 75 -33 75 -75s-33 -75 -75 -75c-15 0 -29 4 -40 11c1 -17 5 -34 11 -51c4 -12 9 -23 15 -32c101 -14 162 -76 162 -165c0 -97 -78 -161 -194 -168l-57 -35
c75 -29 151 -58 198 -81c57 -29 73 -64 73 -106c0 -85 -108 -165 -257 -165c-121 0 -227 42 -227 123c0 77 108 113 184 125c-45 18 -87 34 -100 40v32l65 30l61 39c-106 11 -177 73 -177 166zM130 -95c-2 -54 62 -97 134 -97c77 0 133 33 133 78c0 42 -46 66 -82 83l-61 26
c-67 -8 -123 -57 -124 -90zM184 321c0 -78 25 -125 85 -125s85 47 85 125c0 79 -25 126 -85 126s-85 -47 -85 -126z" />
    <glyph glyph-name="h" unicode="h" horiz-adv-x="605" 
d="M306 417c-71 0 -93 -54 -99 -82v-265l78 -70h-270l73 71v516l-72 35l192 128l-1 -335c32 47 78 74 150 74c95 0 162 -60 162 -174l-1 -245l78 -70h-270l72 70l1 215c0 53 -3 76 -18 99c-14 22 -39 33 -75 33z" />
    <glyph glyph-name="i" unicode="i" horiz-adv-x="305" 
d="M24 0l72 70v285l-72 37l72 44l59 36l61 37v-439l77 -70h-269zM86 640c0 41 34 76 76 76c41 0 76 -35 76 -76c0 -42 -35 -76 -76 -76c-42 0 -76 34 -76 76z" />
    <glyph glyph-name="j" unicode="j" horiz-adv-x="299" 
d="M25 -234c39 48 76 70 77 220v375l-72 31l72 44l59 36l61 37v-509c0 -187 -117 -234 -197 -234zM96 640c0 41 34 76 76 76c41 0 76 -35 76 -76c0 -42 -35 -76 -76 -76c-42 0 -76 34 -76 76z" />
    <glyph glyph-name="k" unicode="k" horiz-adv-x="565" 
d="M15 0l73 71v516l-72 35l192 128l-1 -463h32l145 117l-57 75h232l-52 -40l-178 -141l185 -226l80 -71h-250l40 39l-149 184l-2 -1l-6 9h-20v-162l78 -70h-270z" />
    <glyph glyph-name="l" unicode="l" horiz-adv-x="308" 
d="M20 0l73 71v516l-72 35l192 128l-1 -680l78 -70h-270z" />
    <glyph glyph-name="m" unicode="m" horiz-adv-x="888" 
d="M315 0l72 70l1 209c-1 84 -19 136 -85 136c-65 0 -82 -53 -87 -80v-265l78 -70h-270l72 70v278l-72 44l72 48v1l90 60l22 -96c30 53 75 84 148 84c66 0 117 -33 140 -97c30 61 75 97 154 97c89 0 152 -60 152 -174l-1 -245l78 -70h-270l72 70l1 209
c-1 84 -19 136 -85 136c-86 0 -89 -96 -89 -96v-4l-1 -245l78 -70h-270z" />
    <glyph glyph-name="n" unicode="n" horiz-adv-x="614" 
d="M335 0l72 70l1 215c0 53 -3 76 -18 99c-14 22 -39 33 -75 33c-73 0 -94 -56 -99 -84v-263l78 -70h-270l72 70v278l-72 44l72 48v1l90 60l23 -98c32 54 79 86 157 86c95 0 162 -60 162 -174l-1 -245l78 -70h-270z" />
    <glyph glyph-name="o" unicode="o" horiz-adv-x="584" 
d="M544 240c0 -155 -101 -247 -252 -250c-151 2 -252 94 -252 248c0 150 103 251 252 251c157 0 251 -108 252 -249zM292 442c-89 1 -113 -96 -113 -203s24 -201 113 -201c88 0 113 94 113 201c0 106 -25 202 -113 203z" />
    <glyph glyph-name="p" unicode="p" horiz-adv-x="621" 
d="M362 487c107 0 218 -76 218 -242c0 -134 -113 -258 -277 -258c-28 0 -60 5 -89 16v-157l78 -71h-270l72 71v502l-72 44l72 48v1l90 60l24 -89c34 52 98 75 154 75zM295 398c-20 0 -53 -2 -81 -24v-225c7 -77 46 -112 110 -112c81 0 132 71 132 162
c0 135 -72 199 -161 199z" />
    <glyph glyph-name="q" unicode="q" horiz-adv-x="600" 
d="M259 -13c-107 0 -218 76 -218 242c0 134 113 258 277 258c38 0 84 -8 122 -34l87 55v-687l78 -71h-136v1h-8v-1h-126l72 71v233c-35 -47 -96 -67 -148 -67zM326 76c20 0 53 2 81 24l1 198c0 95 -40 139 -111 139c-81 0 -132 -71 -132 -162c0 -135 72 -199 161 -199z" />
    <glyph glyph-name="r" unicode="r" horiz-adv-x="416" 
d="M24 0l72 70v278l-72 44l72 48v1l90 60l27 -127c23 66 70 115 128 115c34 0 75 -25 75 -78c0 -47 -34 -81 -70 -81c-38 0 -71 26 -75 71c-37 -38 -51 -81 -55 -141v-190l78 -70h-270z" />
    <glyph glyph-name="s" unicode="s" horiz-adv-x="462" 
d="M218 494c34 0 72 -13 98 -28l78 43l1 -205c-22 40 -47 75 -84 104c-23 20 -59 32 -86 32c-48 0 -83 -21 -83 -60c0 -31 39 -50 99 -65c104 -26 171 -57 171 -171c0 -67 -53 -154 -167 -154c-52 0 -89 13 -117 29l-75 -37l-1 223c32 -49 59 -100 104 -135
c28 -21 55 -25 91 -25c33 0 75 20 75 61c0 57 -69 69 -116 79c-94 20 -152 60 -152 158s76 151 164 151z" />
    <glyph glyph-name="t" unicode="t" horiz-adv-x="390" 
d="M291 69c39 0 80 21 114 65c-4 -99 -84 -144 -161 -144c-112 0 -166 70 -166 184l1 241h-70v64h50l99 191h39v-191h168v-64h-166l-1 -224c0 -66 6 -122 93 -122z" />
    <glyph glyph-name="u" unicode="u" horiz-adv-x="597" 
d="M505 509v-401l72 -50l-162 -81l-23 96c-31 -53 -75 -84 -152 -84c-95 0 -160 60 -160 174v193l-71 36l131 80v-1l61 38l-1 -310c1 -84 19 -136 93 -136c67 0 86 47 92 75v217l-72 37l131 80v-1z" />
    <glyph glyph-name="v" unicode="v" horiz-adv-x="523" 
d="M572 479l-111 -82l-182 -396l-1 1l-20 -45l-204 444l-103 78h300l-69 -57l114 -269l112 255l-66 71h96v-3l1 3h133z" />
    <glyph glyph-name="w" unicode="w" horiz-adv-x="798" 
d="M837 479l-101 -81l-124 -304l-57 -138l-159 386l-101 -246l-58 -140l-184 446l-92 77h275l-63 -56l97 -261l97 249l-58 68h244l-63 -56l97 -262l97 250l-58 68h211z" />
    <glyph glyph-name="x" unicode="x" horiz-adv-x="545" 
d="M-9 0l96 68l125 156l-116 163l-112 92h280l-57 -50l87 -120l82 101l-61 69h116l-1 -2l2 2h113l-103 -73l-118 -139l133 -183l104 -84h-280l56 49l-94 131l-80 -114l58 -66h-230z" />
    <glyph glyph-name="y" unicode="y" horiz-adv-x="526" 
d="M572 479l-109 -81l-209 -469c-37 -88 -85 -166 -168 -166c-67 0 -106 27 -132 80l112 129c-10 -74 29 -94 61 -94c42 0 67 60 80 82l24 54l-177 387l-103 78h300l-76 -62l119 -263l113 254l-65 71h96v-2l1 2h133z" />
    <glyph glyph-name="z" unicode="z" horiz-adv-x="522" 
d="M28 0l288 429h-165l-131 -156l50 206h422l-297 -429h180l126 166l-39 -211v-5h-434z" />
    <glyph glyph-name="dieresis" unicode="&#xa8;" 
d="M139 644c0 34 27 62 61 62s62 -28 62 -62s-28 -61 -62 -61s-61 27 -61 61zM320 644c0 34 27 62 61 62s62 -28 62 -62s-28 -61 -62 -61s-61 27 -61 61z" />
    <glyph glyph-name="guillemotleft" unicode="&#xab;" horiz-adv-x="479" 
d="M203 419h41l-98 -183l98 -184h-39l-179 184zM399 419h40l-98 -183l98 -184h-39l-179 184z" />
    <glyph glyph-name="acute" unicode="&#xb4;" 
d="M341 723l3 4h107l14 -30l-219 -165l-17 18c17 25 85 137 112 173z" />
    <glyph glyph-name="cedilla" unicode="&#xb8;" 
d="M197 0l-44 -56c46 -12 90 -50 90 -98c0 -84 -97 -112 -158 -112c-27 0 -52 7 -70 25c46 7 128 10 128 75c0 30 -27 56 -71 65l75 101h50z" />
    <glyph glyph-name="guillemotright" unicode="&#xbb;" horiz-adv-x="479" 
d="M235 419h41l177 -183l-179 -184h-39l98 184zM40 419h40l178 -183l-179 -184h-39l98 184z" />
    <glyph glyph-name="Agrave" unicode="&#xc0;" horiz-adv-x="774" 
d="M10 0l84 81l271 646h53l262 -663l74 -64h-333l97 75l-50 134h-248l-58 -143l86 -66h-238zM349 527l-106 -261h204zM285 937l155 -148l-17 -18l-279 135l14 31h127z" />
    <glyph glyph-name="Aacute" unicode="&#xc1;" horiz-adv-x="774" 
d="M10 0l84 81l271 646h53l262 -663l74 -64h-333l97 75l-50 134h-248l-58 -143l86 -66h-238zM349 527l-106 -261h204zM301 789l155 148h127l14 -31l-279 -135z" />
    <glyph glyph-name="Acircumflex" unicode="&#xc2;" horiz-adv-x="774" 
d="M10 0l84 81l271 646h53l262 -663l74 -64h-333l97 75l-50 134h-248l-58 -143l86 -66h-238zM349 527l-106 -261h204zM571 791l-18 -22l-165 80l-169 -80l-15 21l184 169z" />
    <glyph glyph-name="Atilde" unicode="&#xc3;" horiz-adv-x="774" 
d="M10 0l84 81l271 646h53l262 -663l74 -64h-333l97 75l-50 134h-248l-58 -143l86 -66h-238zM459 800c-51 -1 -97 50 -154 50c-51 0 -74 -18 -75 -44l-13 2c3 62 37 129 99 129c57 0 109 -47 153 -47c59 0 74 30 75 45l13 -2c-3 -62 -30 -132 -98 -133zM349 527l-106 -261
h204z" />
    <glyph glyph-name="Adieresis" unicode="&#xc4;" horiz-adv-x="774" 
d="M10 0l84 81l271 646h53l262 -663l74 -64h-333l97 75l-50 134h-248l-58 -143l86 -66h-238zM349 527l-106 -261h204zM204 883c0 36 29 65 64 65c36 0 65 -29 65 -65s-29 -64 -65 -64c-35 0 -64 28 -64 64zM415 883c0 36 28 65 64 65c35 0 65 -29 65 -65s-30 -64 -65 -64
c-36 0 -64 28 -64 64z" />
    <glyph glyph-name="Aring" unicode="&#xc5;" horiz-adv-x="774" 
d="M10 0l84 81l271 646h53l262 -663l74 -64h-333l97 75l-50 134h-248l-58 -143l86 -66h-238zM263 882c0 58 50 87 113 87c64 0 115 -29 115 -87c0 -59 -51 -87 -115 -87c-63 0 -113 28 -113 87zM349 527l-106 -261h204zM332 882c0 -39 20 -51 45 -51c26 0 46 12 46 51
c0 40 -20 53 -46 53c-25 0 -45 -13 -45 -53z" />
    <glyph glyph-name="AE" unicode="&#xc6;" horiz-adv-x="1029" 
d="M344 0l104 80v244h-171l-139 -264l74 -60h-236l97 95l311 565l-72 58h647l10 -259l-136 202h-245v-279h129l94 140v-341l-94 140h-129v-259h261l160 227l-40 -289h-625zM448 647l-141 -266h141v266z" />
    <glyph glyph-name="Ccedilla" unicode="&#xc7;" horiz-adv-x="763" 
d="M398 -18l-30 -38c46 -12 94 -50 94 -98c0 -93 -101 -117 -162 -117c-27 0 -52 7 -70 25c64 4 124 21 124 80c0 30 -23 56 -67 65l63 85c-184 18 -300 164 -300 353c0 252 146 397 365 397c50 0 114 -23 164 -69l100 78v-325c-88 136 -140 247 -269 247
c-120 0 -203 -125 -203 -297s62 -320 205 -320c141 0 215 172 267 247v-325l-105 82c-53 -50 -113 -68 -176 -70z" />
    <glyph glyph-name="Egrave" unicode="&#xc8;" horiz-adv-x="740" 
d="M25 0l104 80v557l-104 81h611l20 -269l-168 212h-219v-264h129l94 140v-341l-94 140h-129v-274h261l160 227l-40 -289h-625zM323 937l155 -148l-17 -18l-279 135l14 31h127z" />
    <glyph glyph-name="Eacute" unicode="&#xc9;" horiz-adv-x="740" 
d="M656 449l-168 212h-219v-264h129l94 140v-341l-94 140h-129v-274h261l160 227l-40 -289h-625l104 80v557l-104 81h611zM292 789l155 148h127l14 -31l-279 -135z" />
    <glyph glyph-name="Ecircumflex" unicode="&#xca;" horiz-adv-x="740" 
d="M25 0l104 80v557l-104 81h611l20 -269l-168 212h-219v-264h129l94 140v-341l-94 140h-129v-274h261l160 227l-40 -289h-625zM554 791l-18 -22l-165 80l-169 -80l-15 21l184 169z" />
    <glyph glyph-name="Edieresis" unicode="&#xcb;" horiz-adv-x="740" 
d="M25 0l104 80v557l-104 81h611l20 -269l-168 212h-219v-264h129l94 140v-341l-94 140h-129v-274h261l160 227l-40 -289h-625zM183 883c0 36 29 65 64 65c36 0 65 -29 65 -65s-29 -64 -65 -64c-35 0 -64 28 -64 64zM394 883c0 36 28 65 64 65c35 0 65 -29 65 -65
s-30 -64 -65 -64c-36 0 -64 28 -64 64z" />
    <glyph glyph-name="Igrave" unicode="&#xcc;" horiz-adv-x="433" 
d="M393 718l-109 -85v-549l109 -84h-353l104 80v557l-104 81h353zM140 937l155 -148l-17 -18l-279 135l14 31h127z" />
    <glyph glyph-name="Iacute" unicode="&#xcd;" horiz-adv-x="433" 
d="M393 718l-109 -85v-549l109 -84h-353l104 80v557l-104 81h353zM131 789l155 148h127l14 -31l-279 -135z" />
    <glyph glyph-name="Icircumflex" unicode="&#xce;" horiz-adv-x="433" 
d="M393 718l-109 -85v-549l109 -84h-353l104 80v557l-104 81h353zM401 791l-18 -22l-165 80l-169 -80l-15 21l184 169z" />
    <glyph glyph-name="Idieresis" unicode="&#xcf;" horiz-adv-x="433" 
d="M393 718l-109 -85v-549l109 -84h-353l104 80v557l-104 81h353zM47 883c0 36 29 65 64 65c36 0 65 -29 65 -65s-29 -64 -65 -64c-35 0 -64 28 -64 64zM258 883c0 36 28 65 64 65c35 0 65 -29 65 -65s-30 -64 -65 -64c-36 0 -64 28 -64 64z" />
    <glyph glyph-name="Ntilde" unicode="&#xd1;" horiz-adv-x="815" 
d="M800 718l-102 -79v-654l-513 525v-433l99 -77h-268l102 79v544l-103 95h178l438 -446v369l-99 77h268zM479 803c-51 -1 -97 50 -154 50c-51 0 -74 -18 -75 -44l-13 2c3 62 37 129 99 129c57 0 109 -47 153 -47c59 0 74 30 75 45l13 -2c-3 -62 -30 -132 -98 -133z" />
    <glyph glyph-name="Ograve" unicode="&#xd2;" horiz-adv-x="811" 
d="M765 359c1 -233 -140 -378 -360 -382c-219 3 -360 147 -360 380c0 226 144 382 360 382c228 0 359 -166 360 -380zM405 680c-148 1 -203 -160 -203 -322c0 -163 54 -322 203 -322c148 0 203 160 203 322c0 161 -55 321 -203 322zM348 937l155 -148l-17 -18l-279 135
l14 31h127z" />
    <glyph glyph-name="Oacute" unicode="&#xd3;" horiz-adv-x="811" 
d="M765 359c1 -233 -140 -378 -360 -382c-219 3 -360 147 -360 380c0 226 144 382 360 382c228 0 359 -166 360 -380zM405 680c-148 1 -203 -160 -203 -322c0 -163 54 -322 203 -322c148 0 203 160 203 322c0 161 -55 321 -203 322zM327 789l155 148h127l14 -31l-279 -135z
" />
    <glyph glyph-name="Ocircumflex" unicode="&#xd4;" horiz-adv-x="811" 
d="M765 359c1 -233 -140 -378 -360 -382c-219 3 -360 147 -360 380c0 226 144 382 360 382c228 0 359 -166 360 -380zM405 680c-148 1 -203 -160 -203 -322c0 -163 54 -322 203 -322c148 0 203 160 203 322c0 161 -55 321 -203 322zM589 791l-18 -22l-165 80l-169 -80
l-15 21l184 169z" />
    <glyph glyph-name="Otilde" unicode="&#xd5;" horiz-adv-x="811" 
d="M765 359c1 -233 -140 -378 -360 -382c-219 3 -360 147 -360 380c0 226 144 382 360 382c228 0 359 -166 360 -380zM405 680c-148 1 -203 -160 -203 -322c0 -163 54 -322 203 -322c148 0 203 160 203 322c0 161 -55 321 -203 322zM497 804c-51 -1 -97 50 -154 50
c-51 0 -74 -18 -75 -44l-13 2c3 62 37 129 99 129c57 0 109 -47 153 -47c59 0 74 30 75 45l13 -2c-3 -62 -30 -132 -98 -133z" />
    <glyph glyph-name="Odieresis" unicode="&#xd6;" horiz-adv-x="811" 
d="M765 359c1 -233 -140 -378 -360 -382c-219 3 -360 147 -360 380c0 226 144 382 360 382c228 0 359 -166 360 -380zM405 680c-148 1 -203 -160 -203 -322c0 -163 54 -322 203 -322c148 0 203 160 203 322c0 161 -55 321 -203 322zM235 883c0 36 29 65 64 65
c36 0 65 -29 65 -65s-29 -64 -65 -64c-35 0 -64 28 -64 64zM446 883c0 36 28 65 64 65c35 0 65 -29 65 -65s-30 -64 -65 -64c-36 0 -64 28 -64 64z" />
    <glyph glyph-name="Ugrave" unicode="&#xd9;" horiz-adv-x="805" 
d="M798 718l-97 -75v-333c0 -166 -56 -336 -288 -336c-233 0 -299 131 -299 312v351l-104 81h353l-99 -77v-376c0 -118 33 -213 179 -213c114 0 185 72 185 268l-1 322l-97 76h268zM355 937l155 -148l-17 -18l-279 135l14 31h127z" />
    <glyph glyph-name="Uacute" unicode="&#xda;" horiz-adv-x="805" 
d="M798 718l-97 -75v-333c0 -166 -56 -336 -288 -336c-233 0 -299 131 -299 312v351l-104 81h353l-99 -77v-376c0 -118 33 -213 179 -213c114 0 185 72 185 268l-1 322l-97 76h268zM383 789l155 148h127l14 -31l-279 -135z" />
    <glyph glyph-name="Ucircumflex" unicode="&#xdb;" horiz-adv-x="805" 
d="M798 718l-97 -75v-333c0 -166 -56 -336 -288 -336c-233 0 -299 131 -299 312v351l-104 81h353l-99 -77v-376c0 -118 33 -213 179 -213c114 0 185 72 185 268l-1 322l-97 76h268zM636 791l-18 -22l-165 80l-169 -80l-15 21l184 169z" />
    <glyph glyph-name="Udieresis" unicode="&#xdc;" horiz-adv-x="805" 
d="M798 718l-97 -75v-333c0 -166 -56 -336 -288 -336c-233 0 -299 131 -299 312v351l-104 81h353l-99 -77v-376c0 -118 33 -213 179 -213c114 0 185 72 185 268l-1 322l-97 76h268zM280 883c0 36 29 65 64 65c36 0 65 -29 65 -65s-29 -64 -65 -64c-35 0 -64 28 -64 64z
M491 883c0 36 28 65 64 65c35 0 65 -29 65 -65s-30 -64 -65 -64c-36 0 -64 28 -64 64z" />
    <glyph glyph-name="Yacute" unicode="&#xdd;" horiz-adv-x="757" 
d="M205 0l104 80v191l-199 361l-110 86h353l-92 -72l164 -297l165 290l-101 79h268l-94 -73l-214 -359v-202l109 -84h-353zM376 789l155 148h127l14 -31l-279 -135z" />
    <glyph glyph-name="agrave" unicode="&#xe0;" horiz-adv-x="546" 
d="M332 341h1c-4 68 -48 105 -98 105c-30 0 -77 -6 -91 -26c43 -17 54 -42 54 -76c0 -39 -33 -70 -69 -70c-44 0 -68 35 -68 81c0 59 88 139 191 139h16c87 0 179 -40 179 -174c0 -41 -1 -195 -1 -241l76 -79h-164l-25 77c-31 -54 -100 -91 -166 -91c-93 0 -122 69 -122 114
c0 70 59 111 121 126c72 17 167 28 166 115zM215 61c36 0 93 22 115 75l2 121c-24 -31 -61 -50 -94 -63c-54 -24 -74 -47 -74 -85c0 -30 25 -48 51 -48zM273 727l3 -4c27 -36 95 -148 112 -173l-17 -18l-219 165l14 30h107z" />
    <glyph glyph-name="aacute" unicode="&#xe1;" horiz-adv-x="546" 
d="M332 341h1c-4 68 -48 105 -98 105c-30 0 -77 -6 -91 -26c43 -17 54 -42 54 -76c0 -39 -33 -70 -69 -70c-44 0 -68 35 -68 81c0 59 88 139 191 139h16c87 0 179 -40 179 -174c0 -41 -1 -195 -1 -241l76 -79h-164l-25 77c-31 -54 -100 -91 -166 -91c-93 0 -122 69 -122 114
c0 70 59 111 121 126c72 17 167 28 166 115zM215 61c36 0 93 22 115 75l2 121c-24 -31 -61 -50 -94 -63c-54 -24 -74 -47 -74 -85c0 -30 25 -48 51 -48zM343 723l3 4h107l14 -30l-219 -165l-17 18c17 25 85 137 112 173z" />
    <glyph glyph-name="acircumflex" unicode="&#xe2;" horiz-adv-x="546" 
d="M332 341h1c-4 68 -48 105 -98 105c-30 0 -77 -6 -91 -26c43 -17 54 -42 54 -76c0 -39 -33 -70 -69 -70c-44 0 -68 35 -68 81c0 59 88 139 191 139h16c87 0 179 -40 179 -174c0 -41 -1 -195 -1 -241l76 -79h-164l-25 77c-31 -54 -100 -91 -166 -91c-93 0 -122 69 -122 114
c0 70 59 111 121 126c72 17 167 28 166 115zM437 566l-18 -22l-145 80l-149 -80l-15 21l164 169zM215 61c36 0 93 22 115 75l2 121c-24 -31 -61 -50 -94 -63c-54 -24 -74 -47 -74 -85c0 -30 25 -48 51 -48z" />
    <glyph glyph-name="atilde" unicode="&#xe3;" horiz-adv-x="546" 
d="M332 341h1c-4 68 -48 105 -98 105c-30 0 -77 -6 -91 -26c43 -17 54 -42 54 -76c0 -39 -33 -70 -69 -70c-44 0 -68 35 -68 81c0 59 88 139 191 139h16c87 0 179 -40 179 -174c0 -41 -1 -195 -1 -241l76 -79h-164l-25 77c-31 -54 -100 -91 -166 -91c-93 0 -122 69 -122 114
c0 70 59 111 121 126c72 17 167 28 166 115zM347 574c-45 -1 -85 46 -135 46c-45 0 -65 -17 -66 -41l-11 2c3 57 32 119 87 119c50 0 95 -43 134 -43c52 0 65 27 66 41l11 -2c-3 -57 -26 -121 -86 -122zM215 61c36 0 93 22 115 75l2 121c-24 -31 -61 -50 -94 -63
c-54 -24 -74 -47 -74 -85c0 -30 25 -48 51 -48z" />
    <glyph glyph-name="adieresis" unicode="&#xe4;" horiz-adv-x="546" 
d="M332 341h1c-4 68 -48 105 -98 105c-30 0 -77 -6 -91 -26c43 -17 54 -42 54 -76c0 -39 -33 -70 -69 -70c-44 0 -68 35 -68 81c0 59 88 139 191 139h16c87 0 179 -40 179 -174c0 -41 -1 -195 -1 -241l76 -79h-164l-25 77c-31 -54 -100 -91 -166 -91c-93 0 -122 69 -122 114
c0 70 59 111 121 126c72 17 167 28 166 115zM215 61c36 0 93 22 115 75l2 121c-24 -31 -61 -50 -94 -63c-54 -24 -74 -47 -74 -85c0 -30 25 -48 51 -48zM121 644c0 34 27 62 61 62s62 -28 62 -62s-28 -61 -62 -61s-61 27 -61 61zM302 644c0 34 27 62 61 62s62 -28 62 -62
s-28 -61 -62 -61s-61 27 -61 61z" />
    <glyph glyph-name="aring" unicode="&#xe5;" horiz-adv-x="546" 
d="M332 341h1c-4 68 -48 105 -98 105c-30 0 -77 -6 -91 -26c43 -17 54 -42 54 -76c0 -39 -33 -70 -69 -70c-44 0 -68 35 -68 81c0 59 88 139 191 139h16c87 0 179 -40 179 -174c0 -41 -1 -195 -1 -241l76 -79h-164l-25 77c-31 -54 -100 -91 -166 -91c-93 0 -122 69 -122 114
c0 70 59 111 121 126c72 17 167 28 166 115zM175 646c0 55 48 82 109 82s110 -27 110 -82s-49 -81 -110 -81s-109 26 -109 81zM215 61c36 0 93 22 115 75l2 121c-24 -31 -61 -50 -94 -63c-54 -24 -74 -47 -74 -85c0 -30 25 -48 51 -48zM241 647c0 -37 20 -48 44 -48
s44 11 44 48s-20 49 -44 49s-44 -12 -44 -49z" />
    <glyph glyph-name="ae" unicode="&#xe6;" horiz-adv-x="826" 
d="M566 -10c-99 0 -167 48 -201 116c-24 -69 -93 -120 -184 -120c-96 0 -136 54 -136 114c0 70 61 111 125 126c74 17 172 28 171 115h1c-4 68 -49 105 -101 105c-31 0 -79 -6 -94 -26c44 -17 56 -42 56 -76c0 -39 -34 -70 -71 -70c-46 0 -70 35 -70 81c0 59 90 139 196 139
h17c60 0 109 -18 135 -70c41 41 99 65 168 65c82 0 192 -41 202 -180h1v-50h-320v-24c0 -107 73 -157 149 -157c98 0 128 43 167 106c0 -113 -106 -194 -211 -194zM571 442c-62 0 -107 -51 -109 -133h201c0 88 -18 133 -92 133zM244 194c-56 -24 -76 -47 -76 -85
c0 -30 26 -48 52 -48c49 0 107 24 128 90c-7 23 -10 48 -10 73c0 10 0 20 1 30c-25 -29 -61 -47 -95 -60z" />
    <glyph glyph-name="ccedilla" unicode="&#xe7;" horiz-adv-x="522" 
d="M292 -9l-36 -47c46 -12 90 -50 90 -98c0 -84 -97 -112 -158 -112c-27 0 -52 7 -70 25c46 7 128 10 128 75c0 30 -27 56 -71 65l69 93c-126 13 -207 109 -207 232c0 160 109 265 261 265c94 0 169 -59 169 -140c0 -40 -26 -77 -72 -77c-37 0 -71 23 -71 73
c0 40 23 97 -37 97c-75 0 -137 -66 -137 -162c0 -122 70 -189 167 -189c62 0 132 28 165 94c0 -107 -95 -186 -190 -194z" />
    <glyph glyph-name="egrave" unicode="&#xe8;" horiz-adv-x="533" 
d="M273 -10c-155 0 -235 117 -235 240c0 140 95 259 241 259c83 0 198 -41 208 -180h1v-9v-11v-30h-337c4 -101 67 -168 166 -168c70 0 128 30 167 93c0 -113 -106 -194 -211 -194zM264 442c-54 0 -112 -48 -113 -133h209c0 79 -33 133 -96 133zM269 727l3 -4
c27 -36 95 -148 112 -173l-17 -18l-219 165l14 30h107z" />
    <glyph glyph-name="eacute" unicode="&#xe9;" horiz-adv-x="533" 
d="M273 -10c-155 0 -235 117 -235 240c0 140 95 259 241 259c83 0 198 -41 208 -180h1v-50h-337c4 -101 67 -168 166 -168c70 0 128 30 167 93c0 -113 -106 -194 -211 -194zM264 442c-54 0 -112 -48 -113 -133h209c0 79 -33 133 -96 133zM327 723l3 4h107l14 -30l-219 -165
l-17 18c17 25 85 137 112 173z" />
    <glyph glyph-name="ecircumflex" unicode="&#xea;" horiz-adv-x="533" 
d="M273 -10c-155 0 -235 117 -235 240c0 140 95 259 241 259c83 0 198 -41 208 -180h1v-50h-337c4 -101 67 -168 166 -168c70 0 128 30 167 93c0 -113 -106 -194 -211 -194zM449 566l-18 -22l-145 80l-149 -80l-15 21l164 169zM264 442c-54 0 -112 -48 -113 -133h209
c0 79 -33 133 -96 133z" />
    <glyph glyph-name="edieresis" unicode="&#xeb;" horiz-adv-x="533" 
d="M273 -10c-155 0 -235 117 -235 240c0 140 95 259 241 259c83 0 198 -41 208 -180h1v-9v-11v-30h-337c4 -101 67 -168 166 -168c70 0 128 30 167 93c0 -113 -106 -194 -211 -194zM264 442c-54 0 -112 -48 -113 -133h209c0 79 -33 133 -96 133zM127 644c0 34 27 62 61 62
s62 -28 62 -62s-28 -61 -62 -61s-61 27 -61 61zM308 644c0 34 27 62 61 62s62 -28 62 -62s-28 -61 -62 -61s-61 27 -61 61z" />
    <glyph glyph-name="igrave" unicode="&#xec;" horiz-adv-x="318" 
d="M34 0l72 70v285l-72 37l72 44l59 36l61 37v-439l77 -70h-269zM122 727l3 -4c27 -36 95 -148 112 -173l-17 -18l-219 165l14 30h107z" />
    <glyph glyph-name="iacute" unicode="&#xed;" horiz-adv-x="318" 
d="M34 0l72 70v285l-72 37l72 44l59 36l61 37v-439l77 -70h-269zM243 723l3 4h107l14 -30l-219 -165l-17 18c17 25 85 137 112 173z" />
    <glyph glyph-name="icircumflex" unicode="&#xee;" horiz-adv-x="318" 
d="M34 0l72 70v285l-72 37l72 44l59 36l61 37v-439l77 -70h-269zM333 566l-18 -22l-145 80l-149 -80l-15 21l164 169z" />
    <glyph glyph-name="idieresis" unicode="&#xef;" horiz-adv-x="318" 
d="M34 0l72 70v285l-72 37l72 44l59 36l61 37v-439l77 -70h-269zM17 644c0 34 27 62 61 62s62 -28 62 -62s-28 -61 -62 -61s-61 27 -61 61zM198 644c0 34 27 62 61 62s62 -28 62 -62s-28 -61 -62 -61s-61 27 -61 61z" />
    <glyph glyph-name="ntilde" unicode="&#xf1;" horiz-adv-x="624" 
d="M345 0l72 70l1 215c0 53 -3 76 -18 99c-14 22 -39 33 -75 33c-73 0 -94 -56 -99 -84v-263l78 -70h-270l72 70v278l-72 44l72 48v1l90 60l23 -98c32 54 79 86 157 86c95 0 162 -60 162 -174l-1 -245l78 -70h-270zM401 574c-45 -1 -85 46 -135 46c-45 0 -65 -17 -66 -41
l-11 2c3 57 32 119 87 119c50 0 95 -43 134 -43c52 0 65 27 66 41l11 -2c-3 -57 -26 -121 -86 -122z" />
    <glyph glyph-name="ograve" unicode="&#xf2;" horiz-adv-x="588" 
d="M546 240c0 -155 -101 -247 -252 -250c-151 2 -252 94 -252 248c0 150 103 251 252 251c157 0 251 -108 252 -249zM294 442c-89 1 -113 -96 -113 -203s24 -201 113 -201c88 0 113 94 113 201c0 106 -25 202 -113 203zM257 727l3 -4c27 -36 95 -148 112 -173l-17 -18
l-219 165l14 30h107z" />
    <glyph glyph-name="oacute" unicode="&#xf3;" horiz-adv-x="588" 
d="M546 240c0 -155 -101 -247 -252 -250c-151 2 -252 94 -252 248c0 150 103 251 252 251c157 0 251 -108 252 -249zM294 442c-89 1 -113 -96 -113 -203s24 -201 113 -201c88 0 113 94 113 201c0 106 -25 202 -113 203zM358 723l3 4h107l14 -30l-219 -165l-17 18
c17 25 85 137 112 173z" />
    <glyph glyph-name="ocircumflex" unicode="&#xf4;" horiz-adv-x="588" 
d="M546 240c0 -155 -101 -247 -252 -250c-151 2 -252 94 -252 248c0 150 103 251 252 251c157 0 251 -108 252 -249zM294 442c-89 1 -113 -96 -113 -203s24 -201 113 -201c88 0 113 94 113 201c0 106 -25 202 -113 203zM464 566l-18 -22l-145 80l-149 -80l-15 21l164 169z
" />
    <glyph glyph-name="otilde" unicode="&#xf5;" horiz-adv-x="588" 
d="M546 240c0 -155 -101 -247 -252 -250c-151 2 -252 94 -252 248c0 150 103 251 252 251c157 0 251 -108 252 -249zM294 442c-89 1 -113 -96 -113 -203s24 -201 113 -201c88 0 113 94 113 201c0 106 -25 202 -113 203zM375 574c-45 -1 -85 46 -135 46
c-45 0 -65 -17 -66 -41l-11 2c3 57 32 119 87 119c50 0 95 -43 134 -43c52 0 65 27 66 41l11 -2c-3 -57 -26 -121 -86 -122z" />
    <glyph glyph-name="odieresis" unicode="&#xf6;" horiz-adv-x="588" 
d="M546 240c0 -155 -101 -247 -252 -250c-151 2 -252 94 -252 248c0 150 103 251 252 251c157 0 251 -108 252 -249zM294 442c-89 1 -113 -96 -113 -203s24 -201 113 -201c88 0 113 94 113 201c0 106 -25 202 -113 203zM149 644c0 34 27 62 61 62s62 -28 62 -62
s-28 -61 -62 -61s-61 27 -61 61zM330 644c0 34 27 62 61 62s62 -28 62 -62s-28 -61 -62 -61s-61 27 -61 61z" />
    <glyph glyph-name="ugrave" unicode="&#xf9;" horiz-adv-x="608" 
d="M516 509v-401l72 -50l-162 -81l-23 96c-31 -53 -75 -84 -152 -84c-95 0 -160 60 -160 174v193l-71 36l131 80v-1l61 38l-1 -310c1 -84 19 -136 93 -136c67 0 86 47 92 75v217l-72 37l131 80v-1zM304 727l3 -4c27 -36 95 -148 112 -173l-17 -18l-219 165l14 30h107z" />
    <glyph glyph-name="uacute" unicode="&#xfa;" horiz-adv-x="608" 
d="M516 509v-401l72 -50l-162 -81l-23 96c-31 -53 -75 -84 -152 -84c-95 0 -160 60 -160 174v193l-71 36l131 80v-1l61 38l-1 -310c1 -84 19 -136 93 -136c67 0 86 47 92 75v217l-72 37l131 80v-1zM354 723l3 4h107l14 -30l-219 -165l-17 18c17 25 85 137 112 173z" />
    <glyph glyph-name="ucircumflex" unicode="&#xfb;" horiz-adv-x="608" 
d="M516 509v-401l72 -50l-162 -81l-23 96c-31 -53 -75 -84 -152 -84c-95 0 -160 60 -160 174v193l-71 36l131 80v-1l61 38l-1 -310c1 -84 19 -136 93 -136c67 0 86 47 92 75v217l-72 37l131 80v-1zM468 566l-18 -22l-145 80l-149 -80l-15 21l164 169z" />
    <glyph glyph-name="udieresis" unicode="&#xfc;" horiz-adv-x="608" 
d="M516 509v-401l72 -50l-162 -81l-23 96c-31 -53 -75 -84 -152 -84c-95 0 -160 60 -160 174v193l-71 36l131 80v-1l61 38l-1 -310c1 -84 19 -136 93 -136c67 0 86 47 92 75v217l-72 37l131 80v-1zM333 644c0 34 27 62 61 62s62 -28 62 -62s-28 -61 -62 -61s-61 27 -61 61z
M152 644c0 34 27 62 61 62s62 -28 62 -62s-28 -61 -62 -61s-61 27 -61 61z" />
    <glyph glyph-name="yacute" unicode="&#xfd;" horiz-adv-x="526" 
d="M251 479l-76 -62l119 -263l113 254l-65 71h96v-2l1 2h133l-109 -81l-209 -469c-37 -88 -85 -166 -168 -166c-67 0 -106 27 -132 80l112 129c-10 -74 29 -94 61 -94c42 0 67 60 80 82l24 54l-177 387l-103 78h300zM375 723l3 4h107l14 -30l-219 -165l-17 18
c17 25 85 137 112 173z" />
    <glyph glyph-name="ydieresis" unicode="&#xff;" horiz-adv-x="526" 
d="M572 479l-109 -81l-209 -469c-37 -88 -85 -166 -168 -166c-67 0 -106 27 -132 80l112 129c-10 -74 29 -94 61 -94c42 0 67 60 80 82l24 54l-177 387l-103 78h300l-76 -62l119 -263l113 254l-65 71h96v-2l1 2h133zM141 644c0 34 27 62 61 62s62 -28 62 -62
s-28 -61 -62 -61s-61 27 -61 61zM322 644c0 34 27 62 61 62s62 -28 62 -62s-28 -61 -62 -61s-61 27 -61 61z" />
    <glyph glyph-name="dotlessi" unicode="&#x131;" horiz-adv-x="318" 
d="M34 0l72 70v285l-72 37l72 44l59 36l61 37v-439l77 -70h-269z" />
    <glyph glyph-name="OE" unicode="&#x152;" horiz-adv-x="1151" 
d="M539 0c-41 -14 -85 -22 -134 -23c-219 3 -360 147 -360 380c0 226 144 382 360 382c48 0 91 -8 130 -21h546l10 -259l-136 202h-245v-264h129l94 140v-341l-94 140h-129v-274h261l160 227l-40 -289h-552zM405 680c-148 1 -203 -160 -203 -322c0 -163 54 -322 203 -322
c80 0 137 30 165 81v458c-16 59 -80 104 -165 105z" />
    <glyph glyph-name="oe" unicode="&#x153;" horiz-adv-x="896" 
d="M636 -10c-62 0 -130 23 -165 72c-40 -50 -123 -71 -177 -72c-151 2 -249 94 -249 248c0 150 100 251 249 251c70 0 138 -26 181 -79c43 54 114 79 173 79c82 0 192 -41 202 -180h1v-50h-320v-24c0 -107 73 -157 149 -157c98 0 128 43 167 106c0 -113 -106 -194 -211 -194
zM294 442c-89 1 -113 -96 -113 -203s24 -201 113 -201c88 0 113 94 113 201c0 106 -25 202 -113 203zM641 442c-62 0 -107 -51 -109 -133h201c0 88 -18 133 -92 133z" />
    <glyph glyph-name="Ydieresis" unicode="&#x178;" horiz-adv-x="757" 
d="M205 0l104 80v191l-199 361l-110 86h353l-92 -72l164 -297l165 290l-101 79h268l-94 -73l-214 -359v-202l109 -84h-353zM263 883c0 36 29 65 64 65c36 0 65 -29 65 -65s-29 -64 -65 -64c-35 0 -64 28 -64 64zM474 883c0 36 28 65 64 65c35 0 65 -29 65 -65
s-30 -64 -65 -64c-36 0 -64 28 -64 64z" />
    <glyph glyph-name="circumflex" unicode="&#x2c6;" 
d="M558 566l-18 -22l-145 80l-149 -80l-15 21l164 169z" />
    <glyph glyph-name="ring" unicode="&#x2da;" 
d="M115 578c0 55 48 82 109 82s110 -27 110 -82s-49 -81 -110 -81s-109 26 -109 81zM181 579c0 -37 20 -48 44 -48s44 11 44 48s-20 49 -44 49s-44 -12 -44 -49z" />
    <glyph glyph-name="tilde" unicode="&#x2dc;" 
d="M240 484c-45 -1 -85 46 -135 46c-45 0 -65 -17 -66 -41l-11 2c3 57 32 119 87 119c50 0 95 -43 134 -43c52 0 65 27 66 41l11 -2c-3 -57 -26 -121 -86 -122z" />
    <glyph glyph-name="quoteleft" unicode="&#x2018;" horiz-adv-x="254" 
d="M128 597c0 -25 19 -35 27 -36c10 -6 49 -21 49 -75c0 -43 -34 -80 -85 -80c-44 0 -89 41 -89 110c0 118 102 195 127 211c13 7 24 4 26 1c2 -4 2 -12 -3 -18c-17 -23 -52 -63 -52 -113z" />
    <glyph glyph-name="quoteright" unicode="&#x2019;" horiz-adv-x="254" 
d="M126 528c0 25 -19 35 -27 36c-10 6 -49 21 -49 75c0 43 34 80 85 80c44 0 89 -41 89 -110c0 -118 -102 -195 -127 -211c-13 -7 -24 -4 -26 -1c-2 4 -2 12 3 18c17 23 52 63 52 113z" />
    <glyph glyph-name="quotedblleft" unicode="&#x201c;" horiz-adv-x="468" 
d="M342 597c0 -25 19 -35 27 -36c10 -6 49 -21 49 -75c0 -43 -34 -80 -85 -80c-44 0 -89 41 -89 110c0 118 102 195 127 211c13 7 24 4 26 1c2 -4 2 -12 -3 -18c-17 -23 -52 -63 -52 -113zM128 597c0 -25 19 -35 27 -36c10 -6 49 -21 49 -75c0 -43 -34 -80 -85 -80
c-44 0 -89 41 -89 110c0 118 102 195 127 211c13 7 24 4 26 1c2 -4 2 -12 -3 -18c-17 -23 -52 -63 -52 -113z" />
    <glyph glyph-name="quotedblright" unicode="&#x201d;" horiz-adv-x="468" 
d="M126 528c0 25 -19 35 -27 36c-10 6 -49 21 -49 75c0 43 34 80 85 80c44 0 89 -41 89 -110c0 -118 -102 -195 -127 -211c-13 -7 -24 -4 -26 -1c-2 4 -2 12 3 18c17 23 52 63 52 113zM340 528c0 25 -19 35 -27 36c-10 6 -49 21 -49 75c0 43 34 80 85 80
c44 0 89 -41 89 -110c0 -118 -102 -195 -127 -211c-13 -7 -24 -4 -26 -1c-2 4 -2 12 3 18c17 23 52 63 52 113z" />
    <glyph glyph-name="Euro" unicode="&#x20ac;" horiz-adv-x="673" 
d="M50 250l10 60h65c-1 9 -1 18 -1 27c0 23 1 45 2 67h-76l10 60h74c31 173 127 270 277 270c49 0 97 -19 136 -57l66 66v-263c-25 50 -33 72 -54 105c-33 52 -73 94 -125 94c-82 0 -138 -85 -157 -215h263l-10 -60h-258c-1 -12 -1 -24 -1 -36c0 -20 0 -39 1 -58h238
l-10 -60h-221c17 -123 64 -213 147 -213c77 0 110 52 142 108c17 30 31 61 45 88v-263l-70 70c-41 -42 -86 -58 -139 -58c-146 0 -246 111 -273 268h-81z" />
    <glyph glyph-name="acute.uc" 
d="M229 550l155 148h127l14 -31l-279 -135z" />
    <glyph glyph-name="grave.uc" 
d="M370 698l155 -148l-17 -18l-279 135l14 31h127z" />
    <glyph glyph-name="circumflex.uc" 
d="M578 552l-18 -22l-165 80l-169 -80l-15 21l184 169z" />
    <glyph glyph-name="dieresis.uc" 
d="M131 644c0 36 29 65 64 65c36 0 65 -29 65 -65s-29 -64 -65 -64c-35 0 -64 28 -64 64zM342 644c0 36 28 65 64 65c35 0 65 -29 65 -65s-30 -64 -65 -64c-36 0 -64 28 -64 64z" />
    <glyph glyph-name="cedilla.uc" 
d="M197 0l-44 -56c46 -12 94 -50 94 -98c0 -93 -101 -117 -162 -117c-27 0 -52 7 -70 25c64 4 124 21 124 80c0 30 -23 56 -67 65l75 101h50z" />
    <glyph glyph-name="ring.uc" 
d="M115 584c0 58 50 87 113 87c64 0 115 -29 115 -87c0 -59 -51 -87 -115 -87c-63 0 -113 28 -113 87zM184 584c0 -39 20 -51 45 -51c26 0 46 12 46 51c0 40 -20 53 -46 53c-25 0 -45 -13 -45 -53z" />
    <glyph glyph-name="tilde.uc" 
d="M270 484c-51 -1 -97 50 -154 50c-51 0 -74 -18 -75 -44l-13 2c3 62 37 129 99 129c57 0 109 -47 153 -47c59 0 74 30 75 45l13 -2c-3 -62 -30 -132 -98 -133z" />
    </font>
</defs>
</svg>
